<svg
  class="ic-add"
  width="20"
  height="20"
  viewBox="0 0 13 13"
  fill="none"
  xmlns="http://www.w3.org/2000/svg"
>
  <path
    d="M6.5 4V9M4 6.5H9M3.875 12.125H9.125C10.1751 12.125 10.7001 12.125 11.1012 11.9206C11.454 11.7409 11.7409 11.454 11.9206 11.1012C12.125 10.7001 12.125 10.1751 12.125 9.125V3.875C12.125 2.8249 12.125 2.29985 11.9206 1.89877C11.7409 1.54596 11.454 1.25913 11.1012 1.07936C10.7001 0.875 10.1751 0.875 9.125 0.875H3.875C2.8249 0.875 2.29985 0.875 1.89877 1.07936C1.54596 1.25913 1.25913 1.54596 1.07936 1.89877C0.875 2.29985 0.875 2.8249 0.875 3.875V9.125C0.875 10.1751 0.875 10.7001 1.07936 11.1012C1.25913 11.454 1.54596 11.7409 1.89877 11.9206C2.29985 12.125 2.8249 12.125 3.875 12.125Z"
    stroke="#110E11"
    stroke-linecap="round"
    stroke-linejoin="round"
  ></path>
</svg>
