<svg width="252" height="501" viewBox="0 0 252 501" fill="none" xmlns="http://www.w3.org/2000/svg">
  <g opacity="0.02" clip-path="url(#clip0_5283_75298)">
    <path
      d="M250.711 474.223C127.241 474.223 26.7668 373.864 26.7668 250.499C26.7668 127.134 127.212 26.7753 250.711 26.7753C374.211 26.7753 474.627 127.134 474.627 250.499C474.627 373.864 374.182 474.223 250.711 474.223ZM250.711 49.1624C139.594 49.1624 49.173 139.477 49.173 250.499C49.173 361.521 139.594 451.865 250.711 451.865C361.829 451.865 452.22 361.551 452.22 250.529C452.22 139.506 361.829 49.1918 250.711 49.1918V49.1624Z"
      fill="#110E11"
    />
    <path
      d="M250.714 501C112.474 501 0 388.623 0 250.5C0 112.377 112.474 0 250.714 0C388.955 0 501.429 112.377 501.429 250.5C501.429 388.623 388.955 501 250.714 501ZM250.714 10.6928C118.37 10.6928 10.7019 118.269 10.7019 250.5C10.7019 382.731 118.37 490.307 250.714 490.307C383.059 490.307 490.727 382.731 490.727 250.5C490.727 118.269 383.059 10.6928 250.714 10.6928Z"
      fill="#110E11"
    />
    <path
      d="M381.729 246.406C379.665 248.733 379.665 252.238 381.729 254.565L411.535 288.234C414.454 291.534 413.068 296.747 408.882 298.161L366.251 312.418C363.303 313.42 361.534 316.425 362.153 319.488L371.115 363.526C372 367.856 368.167 371.656 363.833 370.802L319.758 361.847C316.721 361.228 313.685 362.966 312.682 365.941L298.413 408.536C296.998 412.719 291.78 414.103 288.478 411.187L254.78 381.406C252.451 379.344 248.942 379.344 246.613 381.406L212.945 411.187C209.643 414.103 204.425 412.719 203.009 408.536L188.74 365.941C187.738 362.996 184.731 361.228 181.665 361.847L137.589 370.802C133.255 371.685 129.452 367.856 130.307 363.526L139.27 319.488C139.889 316.454 138.149 313.42 135.172 312.418L92.5407 298.161C88.3542 296.747 86.9686 291.534 89.8873 288.234L119.694 254.565C121.757 252.238 121.757 248.733 119.694 246.406L89.8873 212.737C86.9686 209.438 88.3542 204.224 92.5407 202.81L135.172 188.553C138.12 187.551 139.889 184.547 139.27 181.483L130.307 137.445C129.423 133.115 133.255 129.315 137.589 130.17L181.665 139.125C184.701 139.743 187.738 138.005 188.74 135.03L203.009 92.4356C204.425 88.2527 209.643 86.8683 212.945 89.7845L246.613 119.565C248.942 121.627 252.451 121.627 254.78 119.565L288.478 89.7845C291.78 86.8683 296.998 88.2527 298.413 92.4356L312.682 135.03C313.685 137.976 316.692 139.743 319.758 139.125L363.833 130.17C368.167 129.286 371.97 133.115 371.115 137.445L362.153 181.483C361.534 184.517 363.273 187.551 366.251 188.553L408.882 202.81C413.068 204.224 414.454 209.438 411.535 212.737L381.729 246.406Z"
      fill="#110E11"
    />
  </g>
  <defs>
    <clipPath id="clip0_5283_75298">
      <rect width="252" height="501" fill="white" transform="matrix(1 0 0 -1 0 501)" />
    </clipPath>
  </defs>
</svg>
