<svg width="24" height="22" viewBox="0 0 24 22" fill="none" xmlns="http://www.w3.org/2000/svg">
  <g clip-path="url(#clip0_6026_17443)">
    <path
      d="M4.2566 7.11432C3.76728 7.30643 3.30899 7.48565 2.85134 7.66554C2.4816 7.81081 2.1138 7.96016 1.74277 8.10068C1.43444 8.21744 1.24505 8.11629 1.15714 7.78094C0.777058 6.32754 0.400209 4.87277 0.0246538 3.41801C-0.0451568 3.14647 0.0311178 2.97608 0.281273 2.86746C2.4467 1.92794 4.61341 0.990459 6.78142 0.0570472C6.8745 0.0169953 6.98504 0.00681264 7.08781 0.00681264C8.81369 0.00409726 10.5396 0.00273957 12.2654 0.00884918C12.4057 0.00884918 12.5537 0.0475433 12.6843 0.103209C14.7922 1.0115 16.8981 1.92523 19.0041 2.83963C19.3448 2.98762 19.4075 3.11999 19.3118 3.48996C18.9492 4.89585 18.5852 6.30174 18.2194 7.70627C18.1069 8.13937 17.9388 8.22966 17.5458 8.07556C16.8148 7.78773 16.0837 7.49854 15.3526 7.21071C15.2789 7.18152 15.2033 7.15776 15.0986 7.12043V7.44152C15.0986 10.4617 15.0986 13.4826 15.0986 16.5027C15.0986 17.0037 14.9939 17.1137 14.5175 17.1137C11.2836 17.1137 8.04965 17.1137 4.81573 17.1137C4.36972 17.1137 4.2566 16.9963 4.2566 16.5306C4.2566 13.5016 4.2566 10.4726 4.2566 7.44356V7.11364V7.11432ZM1.80676 7.20053C1.90825 7.16319 1.98388 7.13672 2.05821 7.10753C2.8578 6.79322 3.65545 6.47485 4.45634 6.16461C4.78471 6.03767 5.01806 6.21077 5.03034 6.57396C5.03292 6.64184 5.03034 6.70973 5.03034 6.77761C5.03034 9.84938 5.03034 12.9218 5.03034 15.9936C5.03034 16.0914 5.03034 16.1891 5.03034 16.2875H14.3236V15.9773C14.3236 12.8716 14.3236 9.76521 14.3236 6.65949C14.3236 6.18905 14.5453 6.02341 14.9596 6.18498C15.5711 6.42393 16.1807 6.66764 16.7915 6.90795C17.0378 7.00502 17.2847 7.09938 17.54 7.19917C17.5678 7.10957 17.5898 7.04643 17.6066 6.98194C17.8871 5.89443 18.1619 4.80557 18.4534 3.72145C18.5044 3.53137 18.4514 3.47571 18.2976 3.40986C16.7398 2.74052 15.1846 2.06371 13.6287 1.38894C13.3352 1.26132 13.0398 1.13709 12.7457 1.0115C12.1135 2.78736 11.1918 3.64881 9.81431 3.659C8.10847 3.6719 7.07618 2.7154 6.60496 1.01082C4.69033 1.83969 2.77959 2.66721 0.848808 3.50354C1.16813 4.73632 1.48292 5.95146 1.80612 7.20053H1.80676ZM7.41166 0.830251C7.51185 1.9422 8.56676 2.86679 9.70507 2.85592C10.8182 2.84574 11.8627 1.90418 11.9422 0.830251H7.41166Z"
      fill="black"
    ></path>
    <path
      d="M2.09778 20.3959C2.39512 20.7021 2.65756 20.9655 2.91353 21.2363C3.13072 21.4658 3.14752 21.7013 2.96977 21.8819C2.79847 22.0557 2.58128 22.0374 2.37379 21.8201C1.89287 21.3178 1.41325 20.8141 0.936854 20.3077C0.710615 20.0673 0.711262 19.8657 0.938146 19.6247C1.41454 19.1183 1.89416 18.6139 2.37508 18.1123C2.58258 17.8957 2.79976 17.8781 2.97106 18.0532C3.143 18.229 3.13201 18.4646 2.92969 18.6805C2.66855 18.9574 2.40029 19.2269 2.09778 19.5378H17.2777C16.9655 19.2235 16.683 18.9629 16.4316 18.673C16.3411 18.5685 16.2687 18.3818 16.2881 18.2487C16.3366 17.9147 16.7115 17.836 16.9642 18.096C17.3456 18.487 17.7186 18.8862 18.0954 19.2826C18.215 19.4089 18.3397 19.5304 18.4535 19.6621C18.6306 19.8678 18.6364 20.0748 18.4522 20.2724C17.9551 20.8052 17.4529 21.3334 16.9461 21.8561C16.7638 22.0448 16.546 22.0448 16.385 21.8805C16.2176 21.7095 16.2209 21.4753 16.4103 21.273C16.6759 20.9892 16.9513 20.715 17.2616 20.3959H2.09778Z"
      fill="black"
    ></path>
    <path
      d="M21.6605 1.39914C21.3696 1.71276 21.1188 1.98837 20.8616 2.25787C20.6437 2.48597 20.4194 2.50362 20.2481 2.31626C20.0827 2.135 20.1008 1.90895 20.3076 1.68968C20.7846 1.18394 21.2636 0.678882 21.7452 0.177895C21.9727 -0.0590222 22.1653 -0.059701 22.3948 0.179252C22.877 0.68024 23.3554 1.18462 23.8324 1.69104C24.038 1.90963 24.0541 2.13908 23.8873 2.31897C23.7148 2.50497 23.4924 2.48597 23.2739 2.25652C23.0173 1.98702 22.7658 1.7114 22.4763 1.39982V15.7384C22.7736 15.4125 23.0212 15.1152 23.2972 14.8511C23.3967 14.7561 23.5732 14.6801 23.6999 14.6997C24.0069 14.7459 24.0948 15.1383 23.8628 15.3922C23.5105 15.7777 23.1466 16.1504 22.7872 16.5285C22.6443 16.6786 22.5066 16.8334 22.358 16.9766C22.1634 17.1646 21.9656 17.1694 21.7782 16.9759C21.2714 16.4532 20.7698 15.9244 20.2721 15.3922C20.0924 15.2001 20.0917 14.9726 20.2475 14.8029C20.4097 14.6264 20.6327 14.6291 20.8254 14.828C21.0956 15.107 21.3554 15.3976 21.6592 15.7255V1.39914H21.6605Z"
      fill="black"
    ></path>
  </g>
  <defs>
    <clipPath id="clip0_6026_17443">
      <rect width="24" height="22" fill="white"></rect>
    </clipPath>
  </defs>
</svg>
