<svg width="29" height="29" viewBox="0 0 29 29" fill="none" xmlns="http://www.w3.org/2000/svg">
  <g clip-path="url(#clip0_5279_81128)">
    <path
      d="M14.4999 27.4501C7.35901 27.4501 1.5481 21.6409 1.5481 14.5C1.5481 7.35912 7.3573 1.54991 14.4999 1.54991C21.6425 1.54991 27.45 7.35912 27.45 14.5C27.45 21.6409 21.6408 27.4501 14.4999 27.4501ZM14.4999 2.84577C8.07344 2.84577 2.84396 8.07355 2.84396 14.5C2.84396 20.9264 8.07344 26.1559 14.4999 26.1559C20.9263 26.1559 26.1541 20.9281 26.1541 14.5017C26.1541 8.07525 20.9263 2.84747 14.4999 2.84747V2.84577Z"
      fill="#110E11"
    ></path>
    <path
      d="M14.5 29C6.50488 29 0 22.4951 0 14.5C0 6.50488 6.50488 0 14.5 0C22.4951 0 29 6.50488 29 14.5C29 22.4951 22.4951 29 14.5 29ZM14.5 0.618944C6.8459 0.618944 0.618944 6.8459 0.618944 14.5C0.618944 22.1541 6.8459 28.3811 14.5 28.3811C22.1541 28.3811 28.3811 22.1541 28.3811 14.5C28.3811 6.8459 22.1541 0.618944 14.5 0.618944Z"
      fill="#110E11"
    ></path>
    <path
      d="M22.0773 14.2631C21.9579 14.3978 21.9579 14.6007 22.0773 14.7354L23.8011 16.6843C23.9699 16.8753 23.8898 17.1771 23.6477 17.2589L21.1821 18.0842C21.0116 18.1421 20.9093 18.316 20.9451 18.4934L21.4635 21.0425C21.5146 21.2931 21.293 21.5131 21.0423 21.4636L18.4932 20.9453C18.3176 20.9095 18.142 21.0101 18.084 21.1823L17.2587 23.6478C17.1769 23.89 16.8751 23.9701 16.6841 23.8013L14.7352 22.0775C14.6005 21.9581 14.3976 21.9581 14.2629 22.0775L12.3157 23.8013C12.1247 23.9701 11.8229 23.89 11.7411 23.6478L10.9158 21.1823C10.8579 21.0118 10.684 20.9095 10.5066 20.9453L7.95753 21.4636C7.70688 21.5148 7.48693 21.2931 7.53637 21.0425L8.05472 18.4934C8.09052 18.3178 7.98992 18.1421 7.81771 18.0842L5.35217 17.2589C5.11004 17.1771 5.02991 16.8753 5.19871 16.6843L6.92254 14.7354C7.0419 14.6007 7.0419 14.3978 6.92254 14.2631L5.19871 12.3142C5.02991 12.1232 5.11004 11.8214 5.35217 11.7396L7.81771 10.9143C7.98822 10.8563 8.09052 10.6824 8.05472 10.5051L7.53637 7.95598C7.48522 7.70533 7.70688 7.48538 7.95753 7.53483L10.5066 8.05317C10.6822 8.08898 10.8579 7.98838 10.9158 7.81616L11.7411 5.35062C11.8229 5.1085 12.1247 5.02836 12.3157 5.19716L14.2629 6.921C14.3976 7.04035 14.6005 7.04035 14.7352 6.921L16.6841 5.19716C16.8751 5.02836 17.1769 5.1085 17.2587 5.35062L18.084 7.81616C18.142 7.98667 18.3159 8.08898 18.4932 8.05317L21.0423 7.53483C21.293 7.48367 21.5129 7.70533 21.4635 7.95598L20.9451 10.5051C20.9093 10.6807 21.0099 10.8563 21.1821 10.9143L23.6477 11.7396C23.8898 11.8214 23.9699 12.1232 23.8011 12.3142L22.0773 14.2631Z"
      fill="#110E11"
    ></path>
  </g>
  <defs>
    <clipPath id="clip0_5279_81128">
      <rect width="29" height="29" fill="white" transform="matrix(1 0 0 -1 0 29)"></rect>
    </clipPath>
  </defs>
</svg>
