<svg width="53" height="52" viewBox="0 0 53 52" fill="none" xmlns="http://www.w3.org/2000/svg">
  <g clip-path="url(#clip0_685_565)">
    <path
      d="M43.2225 15.5182H36.1083V12.1607H28.2469C28.2469 12.1607 25.4012 6.28516 18.502 6.28516C11.6233 6.28516 8.75713 12.1607 8.75713 12.1607H0.875244V41.5182H4.30438C4.70359 43.893 6.77131 45.7151 9.25871 45.7151C11.7461 45.7151 13.8138 43.893 14.213 41.5182H38.6878C39.0871 43.893 41.1548 45.7151 43.6422 45.7151C46.1296 45.7151 48.1973 43.893 48.5965 41.5182H52.8752V27.8119L43.2225 15.5182ZM9.30989 16.3576C9.7091 11.9356 13.2304 8.41429 17.6524 8.01508V9.65287H19.3312V8.01508C23.7532 8.41429 27.2745 11.9458 27.6737 16.3576H26.0359V18.0363H27.6737C27.2745 22.4584 23.743 25.9796 19.3312 26.3789V24.7411H17.6524V26.3789C13.2304 25.9796 9.7091 22.4481 9.30989 18.0363H10.9477V16.3576H9.30989ZM9.25871 44.0363C7.40595 44.0363 5.90123 42.5316 5.90123 40.6789C5.90123 38.8261 7.40595 37.3214 9.25871 37.3214C11.1115 37.3214 12.6162 38.8261 12.6162 40.6789C12.6162 42.5316 11.1115 44.0363 9.25871 44.0363ZM34.4296 39.8395H14.2233C13.8241 37.4647 11.7563 35.6426 9.26895 35.6426C6.78154 35.6426 4.71383 37.4647 4.31461 39.8395H2.55398V33.1348H34.4296V39.8395ZM34.4296 31.456H2.55398V13.8395H8.12249C7.77446 14.8938 7.59021 16.0198 7.59021 17.197C7.59021 23.2056 12.4831 28.0985 18.4918 28.0985C24.5004 28.0985 29.3934 23.2056 29.3934 17.197C29.3934 16.03 29.1989 14.9041 28.8611 13.8395H34.4296V31.456ZM36.0981 17.197H42.4036L50.3162 27.2592H36.0981V17.197ZM43.6524 44.0363C41.7997 44.0363 40.2949 42.5316 40.2949 40.6789C40.2949 38.8261 41.7997 37.3214 43.6524 37.3214C45.5052 37.3214 47.0099 38.8261 47.0099 40.6789C46.9997 42.5316 45.4949 44.0363 43.6524 44.0363ZM51.2067 39.8395H48.6067C48.2075 37.4647 46.1398 35.6426 43.6524 35.6426C41.165 35.6426 39.0973 37.4647 38.6981 39.8395H36.1083V28.9379H51.2067V39.8395Z"
      fill="#262626"
    ></path>
    <path
      d="M17.6524 11.3214V16.3576H14.2949V18.0364H19.3311V11.3214H17.6524Z"
      fill="#262626"
    ></path>
    <path d="M19.3311 34.8032H17.6523V36.482H19.3311V34.8032Z" fill="#262626"></path>
    <path d="M22.6785 34.8032H20.9998V36.482H22.6785V34.8032Z" fill="#262626"></path>
    <path d="M26.0357 34.8032H24.3569V36.482H26.0357V34.8032Z" fill="#262626"></path>
  </g>
  <defs>
    <clipPath id="clip0_685_565">
      <rect width="52" height="52" fill="white" transform="translate(0.875)"></rect>
    </clipPath>
  </defs>
</svg>
