<svg width="90" height="40" viewBox="0 0 90 40" fill="none" xmlns="http://www.w3.org/2000/svg">
  <rect x="1" y="0.5" width="88.5" height="39" rx="3.5" fill="#3D3D3D"></rect>
  <rect x="1" y="0.5" width="88.5" height="39" rx="3.5" stroke="#454545"></rect>
  <path
    d="M19.8891 19.532V21.416H23.4291V23H18.2331V14.6H23.3691V16.184H19.8891V17.972H23.0691V19.532H19.8891ZM29.0964 20.12H24.5964V18.632H29.0964V20.12ZM33.916 23H32.032L29.68 14.6H31.42L33.028 20.828L34.78 14.6H36.196L37.96 20.828L39.568 14.6H41.308L38.956 23H37.072L35.488 17.456L33.916 23ZM48.5659 23H46.7659L46.2619 21.488H42.9139L42.4099 23H40.6219L43.5619 14.6H45.6139L48.5659 23ZM44.5939 16.508L43.4419 19.94H45.7459L44.5939 16.508ZM51.0376 14.6V21.416H54.2416V23H49.3816V14.6H51.0376ZM56.8383 14.6V21.416H60.0423V23H55.1823V14.6H56.8383ZM62.6391 19.532V21.416H66.1791V23H60.9831V14.6H66.1191V16.184H62.6391V17.972H65.8191V19.532H62.6391ZM66.7224 14.6H72.9024V16.184H70.6344V23H68.9784V16.184H66.7224V14.6Z"
    fill="white"
  ></path>
</svg>
