<svg width="20" height="21" viewBox="0 0 20 21" fill="none" xmlns="http://www.w3.org/2000/svg">
  <path
    d="M1.47504 5.26168H5.70212V7.05249C5.70212 7.46256 6.03297 7.79593 6.44223 7.79593C6.85149 7.79593 7.18233 7.46256 7.18233 7.05249V5.26168H18.525C18.9357 5.26168 19.2709 4.93263 19.2709 4.52395C19.2709 4.11527 18.9357 3.78622 18.525 3.78622H7.18233V1.97258C7.18233 1.56251 6.85149 1.22915 6.44223 1.22915C6.03297 1.22915 5.70212 1.56251 5.70212 1.97258V3.78622H1.47504C1.06438 3.78622 0.729207 4.11527 0.729207 4.52395C0.729207 4.93263 1.06438 5.26168 1.47504 5.26168ZM1.47504 17.2252H7.36358V19.0274C7.36358 19.4374 7.69443 19.7708 8.10369 19.7708C8.51295 19.7708 8.84379 19.4374 8.84379 19.0274V17.2252H18.525C18.9357 17.2252 19.2709 16.8961 19.2709 16.4874C19.2709 16.0787 18.9357 15.7497 18.525 15.7497H8.84379V13.9475C8.84379 13.5374 8.51295 13.204 8.10369 13.204C7.69443 13.204 7.36358 13.5374 7.36358 13.9475V15.7497H1.47504C1.06438 15.7497 0.729207 16.0787 0.729207 16.4874C0.729207 16.8961 1.06438 17.2252 1.47504 17.2252ZM18.525 9.76796H14.298V7.96573C14.298 7.55566 13.9671 7.2223 13.5579 7.2223C13.1486 7.2223 12.8177 7.55566 12.8177 7.96573V9.76796H1.47504C1.06438 9.76796 0.729207 10.097 0.729207 10.5057C0.729207 10.9144 1.06438 11.2434 1.47504 11.2434H12.8177V13.0456C12.8177 13.4557 13.1486 13.7891 13.5579 13.7891C13.9671 13.7891 14.298 13.4557 14.298 13.0456V11.2434H18.525C18.9357 11.2434 19.2709 10.9144 19.2709 10.5057C19.2709 10.097 18.9357 9.76796 18.525 9.76796Z"
    fill="black"
    stroke="black"
    stroke-width="0.208333"
  ></path>
</svg>
