<svg
  style="display: none"
  width="74"
  height="60"
  viewBox="0 0 74 60"
  fill="none"
  xmlns="http://www.w3.org/2000/svg"
>
  <path
    d="M54.4834 2.68427C54.5101 1.35239 55.6211 0.301618 56.9731 0.328389C58.3184 0.348468 59.4026 1.4394 59.3758 2.76458C59.3624 4.09646 58.2447 5.14723 56.8928 5.12715C55.5475 5.10038 54.4633 4.00945 54.4834 2.68427ZM54.1621 2.67758C54.142 4.17677 55.3668 5.41495 56.8928 5.44172C58.4188 5.4551 59.6904 4.25708 59.7172 2.75789C59.7372 1.26539 58.5125 0.0205186 56.9865 0.000440079C55.4471 -0.0263313 54.1822 1.17169 54.1621 2.67758Z"
    fill="white"
  ></path>
  <path
    d="M55.7686 4.35087H56.1902L56.2103 3.06584H57.1138C57.2878 3.07923 57.4083 3.106 57.4819 3.13946C57.6158 3.20639 57.6961 3.33356 57.7095 3.53434V4.0363C57.7162 4.15008 57.7229 4.2304 57.7362 4.27055C57.7362 4.31071 57.7563 4.35087 57.7697 4.37764H58.2851V4.31071C58.2315 4.28394 58.178 4.21701 58.1512 4.12331C58.1311 4.06977 58.1311 3.99615 58.1244 3.86898V3.46741C58.1044 3.2934 58.0776 3.15954 58.0173 3.08592C57.9638 3.0123 57.8768 2.93868 57.7496 2.89183C57.8902 2.8249 57.9973 2.73789 58.0709 2.61742C58.1512 2.51034 58.1914 2.3564 58.1914 2.18239C58.1981 1.83436 58.0642 1.58673 57.7764 1.45956C57.6292 1.39933 57.4351 1.35248 57.2142 1.35248L55.8221 1.3324L55.7752 4.35756L55.7686 4.35087ZM56.217 2.71112L56.2304 1.68043H57.2276C57.3614 1.69381 57.4685 1.72058 57.5488 1.75405C57.7095 1.83436 57.7764 1.9883 57.7764 2.20247C57.7764 2.40325 57.7095 2.5438 57.6024 2.61742C57.4819 2.69774 57.3414 2.7312 57.154 2.7312L56.217 2.71782V2.71112Z"
    fill="white"
  ></path>
  <path
    d="M58.5996 22.2538C58.5996 34.4147 48.7544 44.2464 36.6069 44.2464C24.4594 44.2464 14.6143 34.4147 14.6143 22.2538C14.6143 10.0929 24.4594 0.261108 36.6069 0.261108C48.7544 0.261108 58.5996 10.1063 58.5996 22.2538Z"
    fill="white"
  ></path>
  <path
    d="M36.7275 39.5816L36.3326 39.5682C26.9693 39.3674 19.4064 31.6706 19.4064 22.2471C19.4064 16.5649 22.1638 11.5051 26.4138 8.3394L26.4941 8.40633C27.6453 8.45318 28.3614 8.51342 28.6559 8.58035C28.937 8.66066 29.1445 8.75436 29.2449 8.88152C29.3452 8.9953 29.4189 9.23624 29.4724 9.59096C29.5193 9.95238 29.5527 10.7488 29.5661 11.9803L29.5996 15.1527V22.6688L29.5862 26.0888C29.5728 27.2467 29.5326 27.9963 29.4657 28.3309C29.3988 28.6656 29.3051 28.8797 29.1913 28.9868C29.0775 29.0939 28.85 29.1742 28.5153 29.2344C28.1807 29.3081 27.5047 29.3549 26.5008 29.4018L26.3736 29.4955V30.3053L26.5008 30.4392C29.2649 30.3455 30.811 30.3053 31.1389 30.3053C31.574 30.3053 32.1696 30.3187 32.9393 30.3388C34.7999 30.4057 35.7436 30.4392 35.8038 30.4392L35.931 30.3053V29.4955L35.8038 29.4018C34.6594 29.3549 33.9298 29.288 33.6421 29.2144C33.3476 29.1341 33.1468 29.027 33.0464 28.9199C32.9393 28.7927 32.8657 28.5652 32.8054 28.2037C32.7586 27.8423 32.7251 27.0526 32.7051 25.8345L32.6917 22.6688V19.2019C38.2467 24.2951 41.4057 27.1931 42.1486 27.9093C42.8849 28.6254 43.7549 29.4486 44.7321 30.3789C44.8459 30.3789 44.9463 30.3655 45.0533 30.3588V30.3789H52.0206C49.0356 35.9607 43.166 39.5749 36.7275 39.5749M43.1258 7.38233L42.9652 7.50949V8.56696C42.8112 8.80121 42.3427 9.29648 41.5597 10.0795C40.7833 10.8693 39.7861 11.8665 38.5747 13.0712C37.3633 14.276 35.409 16.1031 32.6917 18.5661V15.1594L32.7251 11.4248C32.7251 10.6417 32.7519 10.0394 32.8054 9.59766C32.8724 9.15593 32.9928 8.88152 33.1736 8.75436C33.361 8.63389 33.6554 8.56027 34.057 8.51342C34.4586 8.46657 35.0409 8.4398 35.7905 8.41303L35.9176 8.29925V7.49611L35.7905 7.38902C33.0598 7.46934 31.5003 7.51618 31.1255 7.51618C30.724 7.51618 29.8472 7.49611 28.5153 7.44926L27.7791 7.42249C30.2889 5.90321 33.207 5.01306 36.3326 4.93275H36.7208C39.9199 4.93275 43.012 5.82959 45.6691 7.44256C44.7522 7.44256 43.9089 7.41579 43.1258 7.38233ZM46.7466 27.9829C46.3986 27.6616 45.9903 27.2734 45.5018 26.8317L35.7235 17.783L42.3026 11.7795C43.2128 10.9295 44.036 10.2201 44.7522 9.64451C45.4549 9.06223 45.997 8.7142 46.3584 8.60712C46.5525 8.54688 46.8336 8.50003 47.2017 8.47326C48.982 9.8386 50.5281 11.552 51.6993 13.5464L51.7863 13.6937H54.3765L54.1489 13.2519C50.8226 6.82682 44.3238 2.80443 37.1156 2.65718L36.7341 2.6438C25.9118 2.6438 17.1174 11.4449 17.1174 22.2538C17.1174 33.0627 25.7043 41.6497 36.3393 41.8571L36.7275 41.8638C45.2207 41.8638 52.7099 36.4493 55.3536 28.3778L55.4942 27.9762H46.7533L46.7466 27.9829Z"
    fill="#1C1C1C"
  ></path>
  <path
    d="M67.6157 50.8605H69V58.7387H67.7058V53.1226L65.3085 57.0842H65.151L62.7537 53.1114V58.7387H61.4595V50.8605H62.855L65.2297 54.7996L67.6157 50.8605Z"
    fill="white"
  ></path>
  <path
    d="M60.6125 58.7387H59.2169L58.6654 57.1518H55.3116L54.7601 58.7387H53.3533L56.2119 50.8605H57.7651L60.6125 58.7387ZM56.9885 52.3798L55.7392 55.9363H58.2377L56.9885 52.3798Z"
    fill="white"
  ></path>
  <path
    d="M51.2169 56.2064V50.8605H52.5112V58.7387H51.4983L47.7843 53.3927V58.7387H46.49V50.8605H47.5029L51.2169 56.2064Z"
    fill="white"
  ></path>
  <path
    d="M39.793 50.8605H45.5328V52.0985H43.3156V58.7387H42.0214V52.0985H39.793V50.8605Z"
    fill="white"
  ></path>
  <path
    d="M35.7384 55.3735V57.5007H39.2273V58.7387H34.4441V50.8605H39.171V52.0985H35.7384V54.1468H38.8896V55.3735H35.7384Z"
    fill="white"
  ></path>
  <path d="M31.5754 58.7387V50.8605H32.8697V58.7387H31.5754Z" fill="white"></path>
  <path
    d="M27.9992 58.7387H26.446L23.7112 50.8605H25.1293L27.2226 57.1743L29.3272 50.8605H30.734L27.9992 58.7387Z"
    fill="white"
  ></path>
  <path
    d="M16.5066 54.6648H20.4457V55.205C20.4457 56.2855 20.0856 57.1746 19.3765 57.8611C18.6675 58.5476 17.7334 58.8853 16.5854 58.8853C15.3699 58.8853 14.3683 58.4914 13.5692 57.7036C12.7814 56.9157 12.3875 55.9478 12.3875 54.7999C12.3875 53.6632 12.7814 52.6953 13.5692 51.9075C14.3683 51.1084 15.3474 50.7145 16.5179 50.7145C17.9922 50.7145 19.2752 51.446 19.9505 52.5827L18.8363 53.2242C18.4199 52.4702 17.542 51.975 16.5179 51.975C15.6963 51.975 15.0098 52.2451 14.4808 52.7853C13.9518 53.3255 13.6817 54.0008 13.6817 54.8111C13.6817 55.6215 13.9518 56.2967 14.4808 56.8257C15.021 57.3547 15.7301 57.6248 16.5967 57.6248C17.9922 57.6248 18.9038 56.9157 19.1402 55.824H16.5066V54.6648Z"
    fill="white"
  ></path>
  <path
    d="M8.64482 54.6983L11.9424 58.7387H10.4005L7.29427 54.9909V58.7387H6V50.8605H7.29427V54.3944L10.288 50.8605H11.8299L8.64482 54.6983Z"
    fill="white"
  ></path>
</svg>
