<svg width="90" height="40" viewBox="0 0 90 40" fill="none" xmlns="http://www.w3.org/2000/svg">
  <rect x="0.5" y="0.5" width="88.5" height="39" rx="3.5" fill="#3D3D3D"></rect>
  <rect x="0.5" y="0.5" width="88.5" height="39" rx="3.5" stroke="#454545"></rect>
  <path
    d="M37.7789 9.62012C32.1261 9.65624 27.5479 14.2615 27.5479 19.9414C27.5479 25.6394 32.1622 30.2537 37.8421 30.2537C40.5059 30.2537 42.935 29.2333 44.7681 27.5628C45.1473 27.2196 45.4905 26.8494 45.8156 26.4611H43.7025C43.4226 26.118 43.1607 25.7658 42.935 25.3955H46.5741C46.7998 25.0434 46.9985 24.6731 47.1701 24.2939H42.33C42.1674 23.9417 42.023 23.5805 41.8965 23.2103H47.5945C47.9376 22.1809 48.1273 21.0792 48.1273 19.9414C48.1273 19.1829 48.046 18.4424 47.8925 17.7291H41.5986C41.6798 17.3588 41.7792 16.9976 41.8875 16.6455H47.5854C47.459 16.2662 47.3055 15.896 47.143 15.5438H42.321C42.4925 15.1736 42.6912 14.8124 42.9079 14.4602H46.547C46.3032 14.0719 46.0413 13.7017 45.7524 13.3585H43.7296C44.0457 12.9883 44.3888 12.6361 44.7591 12.3201C42.926 10.6495 40.4969 9.62915 37.833 9.62915C37.824 9.62012 37.8059 9.62012 37.7789 9.62012Z"
    fill="#931B1D"
  ></path>
  <path
    d="M61.9522 19.9417C61.9522 25.6396 57.3469 30.263 51.658 30.263C45.9691 30.263 41.3638 25.6487 41.3638 19.9507C41.3638 14.2528 45.9691 9.62941 51.658 9.62941C57.3379 9.62038 61.9522 14.2347 61.9522 19.9417Z"
    fill="#F16622"
  ></path>
  <path
    d="M61.9522 20.0589C61.9522 25.7568 57.3469 30.3802 51.658 30.3802C45.9691 30.3802 41.3638 25.7658 41.3638 20.0679V20.0589C41.3638 14.3609 45.9691 9.73755 51.658 9.73755C57.3379 9.73755 61.9522 14.3519 61.9522 20.0589C61.9522 20.0498 61.9522 20.0498 61.9522 20.0589Z"
    fill="#F7981D"
  ></path>
  <path
    d="M37.7789 9.73755C32.1261 9.77367 27.5479 14.379 27.5479 20.0589C27.5479 25.7568 32.1622 30.3802 37.8421 30.3802C40.5059 30.3802 42.935 29.3598 44.7681 27.6892C45.1473 27.3461 45.4905 26.9758 45.8156 26.5876H43.7025C43.4226 26.2444 43.1607 25.8922 42.935 25.522H46.5741C46.7998 25.1698 46.9985 24.7996 47.1701 24.4203H42.33C42.1674 24.0682 42.023 23.707 41.8965 23.3367H47.5945C47.9376 22.3073 48.1273 21.2057 48.1273 20.0679C48.1273 19.3094 48.046 18.5689 47.8925 17.8555H41.5986C41.6798 17.4853 41.7792 17.1241 41.8875 16.7719H47.5854C47.459 16.3927 47.3055 16.0224 47.143 15.6703H42.321C42.4925 15.3 42.6912 14.9388 42.9079 14.5867H46.547C46.3032 14.1984 46.0413 13.8281 45.7524 13.485H43.7296C44.0457 13.1148 44.3888 12.7626 44.7591 12.4466C42.926 10.776 40.4969 9.75561 37.833 9.75561C37.824 9.73755 37.8059 9.73755 37.7789 9.73755Z"
    fill="#CB2026"
  ></path>
  <path
    d="M41.5443 22.6868L41.6798 21.7567C41.6075 21.7567 41.4901 21.7928 41.3998 21.7928C41.0206 21.7928 40.9754 21.5941 41.0025 21.4406L41.3095 19.5353H41.8875L42.0229 18.5059H41.4721L41.5804 17.8647H40.4968C40.4698 17.8918 39.8467 21.4768 39.8467 21.9102C39.8467 22.5604 40.2079 22.8493 40.7226 22.8403C41.1289 22.8222 41.436 22.7139 41.5443 22.6868Z"
    fill="white"
  ></path>
  <path
    d="M41.8966 20.8985C41.8966 22.4517 42.917 22.8219 43.7929 22.8219C44.5966 22.8219 44.9488 22.6413 44.9488 22.6413L45.1384 21.5848C45.1384 21.5848 44.5243 21.8557 43.9735 21.8557C42.7996 21.8557 43.0073 20.9798 43.0073 20.9798H45.2377C45.2377 20.9798 45.3822 20.2664 45.3822 19.9775C45.3822 19.2551 45.021 18.3701 43.82 18.3701C42.7093 18.3701 41.8966 19.553 41.8966 20.8985ZM43.82 19.3544C44.434 19.3544 44.3257 20.0497 44.3257 20.1039H43.1066C43.1066 20.0316 43.224 19.3544 43.82 19.3544Z"
    fill="white"
  ></path>
  <path
    d="M50.7551 22.6866L50.9537 21.4856C50.9537 21.4856 50.4119 21.7565 50.0507 21.7565C49.2741 21.7565 48.9581 21.1605 48.9581 20.5194C48.9581 19.2191 49.6263 18.5057 50.3758 18.5057C50.9357 18.5057 51.3781 18.8218 51.3781 18.8218L51.5587 17.6569C51.5587 17.6569 50.8905 17.386 50.3216 17.386C49.0574 17.386 47.8203 18.4876 47.8203 20.5555C47.8203 21.9281 48.4885 22.8311 49.7979 22.8311C50.1681 22.8311 50.7551 22.6866 50.7551 22.6866Z"
    fill="white"
  ></path>
  <path
    d="M35.5214 18.3882C34.7719 18.3882 34.194 18.632 34.194 18.632L34.0314 19.5801C34.0314 19.5801 34.51 19.3905 35.2234 19.3905C35.6297 19.3905 35.9277 19.4357 35.9277 19.7698C35.9277 19.9684 35.8916 20.0497 35.8916 20.0497C35.8916 20.0497 35.5665 20.0226 35.422 20.0226C34.4739 20.0226 33.4806 20.429 33.4806 21.648C33.4806 22.6142 34.1308 22.8309 34.5371 22.8309C35.3137 22.8309 35.6388 22.3253 35.6659 22.3253L35.6297 22.7497H36.5959L37.0294 19.7246C37.0294 18.4243 35.9097 18.3882 35.5214 18.3882ZM35.7562 20.8443C35.7742 21.034 35.6388 21.8918 34.9796 21.8918C34.6364 21.8918 34.5461 21.63 34.5461 21.4764C34.5461 21.1785 34.7087 20.8173 35.5123 20.8173C35.702 20.8173 35.72 20.8443 35.7562 20.8443Z"
    fill="white"
  ></path>
  <path
    d="M38.0496 22.7951C38.2934 22.7951 39.7111 22.8583 39.7111 21.3954C39.7111 20.0319 38.4018 20.3028 38.4018 19.752C38.4018 19.4811 38.6185 19.3908 39.0068 19.3908C39.1603 19.3908 39.7563 19.4449 39.7563 19.4449L39.8917 18.4787C39.8917 18.4787 39.5034 18.3975 38.8804 18.3975C38.0677 18.3975 37.2459 18.7225 37.2459 19.8332C37.2459 21.0884 38.6185 20.962 38.6185 21.4948C38.6185 21.8469 38.2392 21.874 37.9413 21.874C37.4265 21.874 36.966 21.7024 36.966 21.7024L36.8215 22.6596C36.8486 22.6687 37.1286 22.7951 38.0496 22.7951Z"
    fill="white"
  ></path>
  <path
    d="M59.8392 17.5122L59.6044 18.9841C59.6044 18.9841 59.1891 18.4152 58.5479 18.4152C57.5456 18.4152 56.7058 19.6252 56.7058 21.0249C56.7058 21.9279 57.1483 22.8038 58.0693 22.8038C58.7285 22.8038 59.0897 22.3433 59.0897 22.3433L59.0446 22.7316H60.1101L60.9499 17.5122H59.8392ZM59.3335 20.3838C59.3335 20.9617 59.0446 21.7383 58.4486 21.7383C58.0513 21.7383 57.8707 21.4041 57.8707 20.8894C57.8707 20.0406 58.2499 19.4717 58.7376 19.4717C59.1259 19.4717 59.3335 19.7426 59.3335 20.3838Z"
    fill="white"
  ></path>
  <path
    d="M29.5885 22.7406L30.2567 18.7945L30.356 22.7406H31.1146L32.5232 18.7945L31.9002 22.7406H33.0199L33.8868 17.5122H32.153L31.0694 20.7179L31.0062 17.5122H29.4079L28.532 22.7406H29.5885Z"
    fill="white"
  ></path>
  <path
    d="M46.4747 22.7497C46.7907 20.9347 46.854 19.4537 47.6125 19.7246C47.7479 19.0203 47.8743 18.7494 48.0188 18.4514C48.0188 18.4514 47.9466 18.4333 47.8111 18.4333C47.3235 18.4333 46.9533 19.1016 46.9533 19.1016L47.0526 18.4875H46.0322L45.3459 22.7407H46.4747V22.7497Z"
    fill="white"
  ></path>
  <path
    d="M53.2925 18.3882C52.543 18.3882 51.9651 18.632 51.9651 18.632L51.8025 19.5801C51.8025 19.5801 52.2811 19.3905 52.9945 19.3905C53.4009 19.3905 53.6988 19.4357 53.6988 19.7698C53.6988 19.9684 53.6627 20.0497 53.6627 20.0497C53.6627 20.0497 53.3376 20.0226 53.1932 20.0226C52.245 20.0226 51.2517 20.429 51.2517 21.648C51.2517 22.6142 51.9019 22.8309 52.3082 22.8309C53.0848 22.8309 53.4189 22.3253 53.4279 22.3253L53.3918 22.7497H54.358L54.7915 19.7246C54.7915 18.4243 53.6808 18.3882 53.2925 18.3882ZM53.5273 20.8443C53.5453 21.034 53.4099 21.8918 52.7507 21.8918C52.4076 21.8918 52.3263 21.63 52.3263 21.4764C52.3263 21.1785 52.4888 20.8173 53.2925 20.8173C53.4731 20.8173 53.4912 20.8443 53.5273 20.8443Z"
    fill="white"
  ></path>
  <path
    d="M55.6762 22.7497C55.9923 20.9347 56.0555 19.4537 56.814 19.7246C56.9495 19.0203 57.0759 18.7494 57.2204 18.4514C57.2204 18.4514 57.1481 18.4333 57.0127 18.4333C56.5251 18.4333 56.1548 19.1016 56.1548 19.1016L56.2542 18.4875H55.2338L54.5475 22.7407H55.6762V22.7497Z"
    fill="white"
  ></path>
</svg>
