<svg width="53" height="52" viewBox="0 0 53 52" fill="none" xmlns="http://www.w3.org/2000/svg">
  <g clip-path="url(#clip0_1661_72)">
    <path
      d="M34.7234 8.38864C34.314 5.5532 31.8675 3.35242 28.9195 3.35242C25.9715 3.35242 23.525 5.54297 23.1156 8.38864H0.125V43.6115H20.2494V46.969H11.0266V48.6477H20.2494H31.9904H41.2132V46.969H31.9904V43.6115H52.125V8.38864H34.7234ZM28.9195 5.04139C31.2329 5.04139 33.1163 6.92486 33.1163 9.23824C33.1163 11.5516 31.2329 13.4351 28.9195 13.4351C26.6061 13.4351 24.7226 11.5516 24.7226 9.23824C24.7226 6.92486 26.6061 5.04139 28.9195 5.04139ZM30.3219 46.969H21.9282V43.6115H30.3219V46.969ZM50.4463 41.943H32.0006H20.2494H1.80374V36.9067H50.4463V41.943ZM50.4463 35.228H1.80374V10.0674H23.1156C23.525 12.9028 25.9715 15.1036 28.9195 15.1036C31.8675 15.1036 34.314 12.913 34.7234 10.0674H50.4463V35.228Z"
      fill="#262626"
    ></path>
    <path d="M26.9644 38.5854H25.2856V40.2642H26.9644V38.5854Z" fill="#262626"></path>
    <path d="M30.3218 38.5854H28.6431V40.2642H30.3218V38.5854Z" fill="#262626"></path>
    <path d="M23.6067 38.5854H21.928V40.2642H23.6067V38.5854Z" fill="#262626"></path>
    <path
      d="M18.3148 20.8768C17.9873 20.4878 17.3731 20.1705 16.4723 19.9248V17.7241C16.8408 17.8776 17.066 18.1847 17.1479 18.6248L18.5707 18.4406C18.4684 17.8776 18.2432 17.4272 17.8952 17.0894C17.5471 16.7516 17.066 16.5469 16.4723 16.4752V15.9225H15.6534V16.4752C15.0085 16.5367 14.4967 16.7823 14.1078 17.202C13.7188 17.6217 13.5243 18.1335 13.5243 18.7477C13.5243 19.3516 13.6983 19.8737 14.0361 20.2934C14.3841 20.7233 14.9164 21.0406 15.6534 21.2453V23.5997C15.4692 23.5382 15.2849 23.3745 15.1109 23.1595C14.9471 22.9445 14.8345 22.6784 14.7731 22.3815L13.3093 22.5351C13.4219 23.2721 13.6778 23.8453 14.0873 24.2548C14.4967 24.6642 15.0188 24.8997 15.6637 24.9815V26.0052H16.4826V24.9508C17.2093 24.8485 17.7826 24.5619 18.192 24.091C18.6015 23.6304 18.8062 23.0571 18.8062 22.3713C18.8062 21.7674 18.6424 21.2658 18.3148 20.8768ZM15.6637 19.6792C15.418 19.5666 15.244 19.4233 15.1211 19.2595C14.9983 19.0855 14.9369 18.9012 14.9369 18.7067C14.9369 18.4918 14.9983 18.2871 15.1314 18.113C15.2644 17.9288 15.4385 17.8059 15.6637 17.7343V19.6792ZM17.1684 23.313C16.9944 23.5178 16.7589 23.6508 16.4826 23.702V21.5115C16.8203 21.6138 17.066 21.7469 17.2093 21.9311C17.3526 22.1154 17.4345 22.3304 17.4345 22.576C17.4345 22.8524 17.3424 23.0981 17.1684 23.313Z"
      fill="#262626"
    ></path>
    <path
      d="M16.0627 12.5957C11.4461 12.5957 7.6792 16.3626 7.6792 20.9792C7.6792 25.5957 11.4359 29.3626 16.0627 29.3626C20.6894 29.3626 24.4461 25.5957 24.4461 20.9792C24.4461 16.3626 20.6792 12.5957 16.0627 12.5957ZM16.0627 27.6737C12.3674 27.6737 9.3477 24.6744 9.3477 20.9689C9.3477 17.2634 12.3572 14.2642 16.0627 14.2642C19.7579 14.2642 22.7674 17.2737 22.7674 20.9689C22.7674 24.6642 19.7579 27.6737 16.0627 27.6737Z"
      fill="#262626"
    ></path>
    <path
      d="M30.4344 9.16656C30.2194 8.91066 29.81 8.6957 29.2061 8.53192V7.07838C29.4517 7.18074 29.595 7.38546 29.6565 7.68231L30.6084 7.55948C30.547 7.18074 30.3935 6.88389 30.158 6.65869C29.9226 6.43349 29.6053 6.30042 29.2061 6.24924V5.88074H28.6635V6.24924C28.2336 6.29019 27.8856 6.45397 27.6297 6.73034C27.3738 7.00672 27.2407 7.35475 27.2407 7.7642C27.2407 8.17365 27.3533 8.51145 27.5887 8.79806C27.8139 9.08467 28.1722 9.2894 28.6635 9.43271V11.0091C28.5305 10.9374 28.4076 10.8351 28.295 10.6918C28.1824 10.5485 28.1108 10.3744 28.0698 10.1697L27.0872 10.2721C27.1588 10.7634 27.3328 11.1422 27.6092 11.4185C27.8753 11.6847 28.2336 11.8485 28.6635 11.8996V12.5855H29.2061V11.8792C29.6974 11.8075 30.0761 11.6233 30.3525 11.3059C30.6289 10.9988 30.762 10.6099 30.762 10.1595C30.762 9.75003 30.6494 9.42247 30.4344 9.16656ZM28.6533 8.36814C28.4998 8.29649 28.3769 8.20436 28.295 8.09176C28.2131 7.97916 28.1722 7.85633 28.1722 7.72326C28.1722 7.57995 28.2131 7.44688 28.3053 7.32404C28.3974 7.20121 28.51 7.11932 28.6533 7.06814V8.36814ZM29.6565 10.7941C29.5439 10.9374 29.3903 11.0193 29.1958 11.05V9.59649H29.2061C29.4313 9.6579 29.595 9.75003 29.6872 9.87286C29.7793 9.9957 29.8305 10.139 29.8305 10.3028C29.8305 10.487 29.769 10.6508 29.6565 10.7941Z"
      fill="#262626"
    ></path>
  </g>
  <defs>
    <clipPath id="clip0_1661_72">
      <rect width="52" height="52" fill="white" transform="translate(0.125)"></rect>
    </clipPath>
  </defs>
</svg>
