<svg width="90" height="40" viewBox="0 0 90 40" fill="none" xmlns="http://www.w3.org/2000/svg">
  <rect x="0.5" y="0.5" width="88.5" height="39" rx="3.5" fill="#3D3D3D"></rect>
  <rect x="0.5" y="0.5" width="88.5" height="39" rx="3.5" stroke="#454545"></rect>
  <g clip-path="url(#clip0_761_4316)">
    <path
      d="M34.5 19.375H29.5V16.25H32.8269C32.9518 16.25 33.0738 16.2874 33.1772 16.3575C33.2807 16.4275 33.3608 16.5269 33.4072 16.6429L34.5 19.375Z"
      stroke="white"
      stroke-width="1.04167"
      stroke-linecap="round"
      stroke-linejoin="round"
    ></path>
    <path
      d="M17 21.25H29.5"
      stroke="white"
      stroke-width="1.04167"
      stroke-linecap="round"
      stroke-linejoin="round"
    ></path>
    <path
      d="M30.4375 26.875C31.473 26.875 32.3125 26.0355 32.3125 25C32.3125 23.9645 31.473 23.125 30.4375 23.125C29.402 23.125 28.5625 23.9645 28.5625 25C28.5625 26.0355 29.402 26.875 30.4375 26.875Z"
      stroke="white"
      stroke-width="1.04167"
      stroke-linecap="round"
      stroke-linejoin="round"
    ></path>
    <path
      d="M21.0625 26.875C22.098 26.875 22.9375 26.0355 22.9375 25C22.9375 23.9645 22.098 23.125 21.0625 23.125C20.027 23.125 19.1875 23.9645 19.1875 25C19.1875 26.0355 20.027 26.875 21.0625 26.875Z"
      stroke="white"
      stroke-width="1.04167"
      stroke-linecap="round"
      stroke-linejoin="round"
    ></path>
    <path
      d="M28.5625 25H22.9375"
      stroke="white"
      stroke-width="1.04167"
      stroke-linecap="round"
      stroke-linejoin="round"
    ></path>
    <path
      d="M19.1875 25H17.625C17.4592 25 17.3003 24.9342 17.1831 24.8169C17.0658 24.6997 17 24.5408 17 24.375V15.625C17 15.4592 17.0658 15.3003 17.1831 15.1831C17.3003 15.0658 17.4592 15 17.625 15H29.5V23.3762"
      stroke="white"
      stroke-width="1.04167"
      stroke-linecap="round"
      stroke-linejoin="round"
    ></path>
    <path
      d="M29.5 23.3762V19.375H34.5V24.375C34.5 24.5408 34.4342 24.6997 34.3169 24.8169C34.1997 24.9342 34.0408 25 33.875 25H32.3125"
      stroke="white"
      stroke-width="1.04167"
      stroke-linecap="round"
      stroke-linejoin="round"
    ></path>
  </g>
  <path
    d="M45.6947 26.196C44.2247 26.196 43.0067 25.706 42.0407 24.726C41.0747 23.746 40.5987 22.542 40.5987 21.1C40.5987 19.658 41.0747 18.44 42.0407 17.474C43.0067 16.494 44.2247 16.004 45.6947 16.004C47.4727 16.004 49.0687 16.9 49.9087 18.314L48.2427 19.28C47.7527 18.398 46.8147 17.88 45.6947 17.88C44.7427 17.88 43.9727 18.174 43.3847 18.776C42.8107 19.378 42.5167 20.148 42.5167 21.1C42.5167 22.038 42.8107 22.808 43.3847 23.41C43.9727 24.012 44.7427 24.306 45.6947 24.306C46.8147 24.306 47.7807 23.774 48.2427 22.92L49.9087 23.886C49.0687 25.3 47.4867 26.196 45.6947 26.196ZM59.4509 24.726C58.4569 25.706 57.2529 26.196 55.8389 26.196C54.4249 26.196 53.2209 25.706 52.2269 24.726C51.2469 23.732 50.7569 22.528 50.7569 21.1C50.7569 19.672 51.2469 18.468 52.2269 17.488C53.2209 16.494 54.4249 16.004 55.8389 16.004C57.2529 16.004 58.4569 16.494 59.4509 17.488C60.4449 18.468 60.9349 19.672 60.9349 21.1C60.9349 22.528 60.4449 23.732 59.4509 24.726ZM53.5849 23.41C54.1869 24.012 54.9429 24.306 55.8389 24.306C56.7349 24.306 57.4909 24.012 58.0929 23.41C58.6949 22.808 59.0029 22.038 59.0029 21.1C59.0029 20.162 58.6949 19.392 58.0929 18.79C57.4909 18.188 56.7349 17.88 55.8389 17.88C54.9429 17.88 54.1869 18.188 53.5849 18.79C52.9829 19.392 52.6749 20.162 52.6749 21.1C52.6749 22.038 52.9829 22.808 53.5849 23.41ZM62.2928 16.2H66.1848C67.5288 16.2 68.6488 16.676 69.5448 17.614C70.4548 18.552 70.9028 19.714 70.9028 21.1C70.9028 22.486 70.4548 23.648 69.5448 24.586C68.6488 25.524 67.5288 26 66.1848 26H62.2928V16.2ZM64.2248 24.152H66.1848C67.0388 24.152 67.7248 23.872 68.2568 23.312C68.7888 22.738 69.0548 22.01 69.0548 21.1C69.0548 20.19 68.7888 19.462 68.2568 18.902C67.7248 18.328 67.0388 18.048 66.1848 18.048H64.2248V24.152Z"
    fill="white"
  ></path>
  <defs>
    <clipPath id="clip0_761_4316">
      <rect width="20" height="20" fill="white" transform="translate(15.75 10)"></rect>
    </clipPath>
  </defs>
</svg>
