<svg width="20" height="20" viewBox="0 0 20 20" fill="none" xmlns="http://www.w3.org/2000/svg">
  <path
    d="M9.40205 2.87756C9.59412 2.48844 9.69015 2.29389 9.82053 2.23172C9.93396 2.17764 10.0657 2.17764 10.1792 2.23172C10.3095 2.29389 10.4056 2.48844 10.5977 2.87756L12.4199 6.5692C12.4766 6.68407 12.5049 6.74151 12.5464 6.78611C12.5831 6.82559 12.6271 6.85759 12.6759 6.88031C12.7311 6.90598 12.7945 6.91525 12.9213 6.93377L16.9973 7.52955C17.4266 7.59229 17.6412 7.62366 17.7405 7.72849C17.8269 7.81971 17.8675 7.94504 17.8511 8.06961C17.8322 8.21278 17.6768 8.36411 17.3661 8.66678L14.4177 11.5385C14.3258 11.628 14.2798 11.6728 14.2502 11.726C14.2239 11.7732 14.2071 11.825 14.2006 11.8786C14.1933 11.9391 14.2041 12.0023 14.2258 12.1287L14.9215 16.1849C14.9948 16.6127 15.0315 16.8266 14.9626 16.9535C14.9026 17.064 14.796 17.1414 14.6724 17.1644C14.5304 17.1907 14.3383 17.0897 13.9541 16.8876L10.3102 14.9713C10.1966 14.9116 10.1398 14.8818 10.08 14.87C10.0271 14.8596 9.97262 14.8596 9.91966 14.87C9.85986 14.8818 9.80309 14.9116 9.68955 14.9713L6.04561 16.8876C5.66143 17.0897 5.46935 17.1907 5.32731 17.1644C5.20374 17.1414 5.09711 17.064 5.03712 16.9535C4.96817 16.8266 5.00486 16.6127 5.07823 16.1849L5.77391 12.1287C5.7956 12.0023 5.80644 11.9391 5.7991 11.8786C5.79261 11.825 5.77576 11.7732 5.74951 11.726C5.71986 11.6728 5.6739 11.628 5.58199 11.5385L2.63364 8.66678C2.32289 8.36411 2.16752 8.21278 2.14861 8.06961C2.13216 7.94504 2.1728 7.81971 2.25921 7.72849C2.35853 7.62366 2.57315 7.59229 3.00237 7.52955L7.07843 6.93377C7.20519 6.91525 7.26857 6.90598 7.32377 6.88031C7.37264 6.85759 7.41664 6.82559 7.45332 6.78611C7.49476 6.74151 7.52311 6.68407 7.57981 6.5692L9.40205 2.87756Z"
    fill="url(#paint0_linear_5803_54238)"
    stroke="url(#paint1_linear_5803_54238)"
    stroke-width="1.66667"
    stroke-linecap="round"
    stroke-linejoin="round"
  ></path>
  <defs>
    <linearGradient
      id="paint0_linear_5803_54238"
      x1="2.14502"
      y1="9.67982"
      x2="17.8547"
      y2="9.67982"
      gradientUnits="userSpaceOnUse"
    >
      <stop stop-color="#E7DAAF"></stop>
      <stop offset="0.549999" stop-color="#EAD8AF"></stop>
      <stop offset="1" stop-color="#D0B999"></stop>
    </linearGradient>
    <linearGradient
      id="paint1_linear_5803_54238"
      x1="2.14502"
      y1="9.67982"
      x2="17.8547"
      y2="9.67982"
      gradientUnits="userSpaceOnUse"
    >
      <stop stop-color="#E7DAAF"></stop>
      <stop offset="0.549999" stop-color="#EAD8AF"></stop>
      <stop offset="1" stop-color="#D0B999"></stop>
    </linearGradient>
  </defs>
</svg>
