<svg width="14" height="14" viewBox="0 0 14 14" fill="none" xmlns="http://www.w3.org/2000/svg">
  <g clip-path="url(#clip0_761_4247)">
    <path
      d="M13.1337 3.51074C12.3347 3.51074 11.5975 3.24605 11.0055 2.79953C10.3266 2.28766 9.83874 1.5368 9.66648 0.671367C9.62382 0.457539 9.60085 0.236875 9.59867 0.0107422H7.31628V6.24731L7.31355 9.66336C7.31355 10.5766 6.71882 11.351 5.89441 11.6234C5.65515 11.7024 5.39675 11.7398 5.12769 11.7251C4.78425 11.7062 4.46242 11.6026 4.18269 11.4352C3.58742 11.0792 3.18382 10.4334 3.17288 9.69453C3.15566 8.53981 4.08917 7.59836 5.24308 7.59836C5.47085 7.59836 5.6896 7.63555 5.89441 7.70309V5.99848V5.3857C5.67839 5.35371 5.45855 5.33703 5.23624 5.33703C3.97324 5.33703 2.79199 5.86203 1.94761 6.80785C1.30941 7.52262 0.926596 8.43453 0.867533 9.39074C0.790151 10.6469 1.2498 11.841 2.14121 12.722C2.27218 12.8514 2.40972 12.9714 2.55355 13.0821C3.31781 13.6703 4.25214 13.9891 5.23624 13.9891C5.45855 13.9891 5.67839 13.9727 5.89441 13.9407C6.81371 13.8046 7.66191 13.3838 8.33128 12.722C9.15378 11.9091 9.60824 10.8298 9.61316 9.68113L9.6014 4.57988C9.99378 4.88258 10.4228 5.13305 10.8833 5.32746C11.5994 5.62961 12.3587 5.78273 13.1402 5.78246V4.12516V3.5102C13.1408 3.51074 13.1342 3.51074 13.1337 3.51074Z"
      fill="white"
    ></path>
  </g>
  <defs>
    <clipPath id="clip0_761_4247"><rect width="14" height="14" fill="white"></rect></clipPath>
  </defs>
</svg>
