<svg width="90" height="48" viewBox="0 0 90 48" fill="none" xmlns="http://www.w3.org/2000/svg">
  <rect x="1" y="4.5" width="88.5" height="39" rx="3.5" fill="#3D3D3D"></rect>
  <rect x="1" y="4.5" width="88.5" height="39" rx="3.5" stroke="#454545"></rect>
  <g clip-path="url(#clip0_761_4328)">
    <path d="M40.4859 16.8821L38.0549 31.1481H41.9429L44.3759 16.8821H40.4859Z" fill="white"></path>
    <path
      d="M34.7951 16.898L30.9871 26.627L30.5811 25.158C29.8301 23.388 27.6981 20.846 25.1951 19.244L28.6771 31.141L32.7911 31.134L38.9141 16.895L34.7951 16.898Z"
      fill="white"
    ></path>
    <path
      d="M29.105 17.919C28.879 17.05 28.224 16.791 27.411 16.76H21.383L21.333 17.044C26.024 18.182 29.128 20.924 30.416 24.221L29.105 17.919Z"
      fill="#F68D1B"
    ></path>
    <path
      d="M52.256 19.617C53.528 19.597 54.45 19.875 55.166 20.163L55.517 20.328L56.043 17.236C55.273 16.947 54.066 16.637 52.56 16.637C48.718 16.637 46.01 18.572 45.989 21.345C45.964 23.394 47.918 24.538 49.394 25.221C50.909 25.921 51.417 26.366 51.41 26.991C51.398 27.946 50.202 28.384 49.085 28.384C47.528 28.384 46.701 28.169 45.424 27.637L44.923 27.409L44.376 30.602C45.286 31.001 46.965 31.344 48.708 31.362C52.795 31.362 55.451 29.45 55.479 26.487C55.496 24.866 54.459 23.629 52.212 22.614C50.852 21.952 50.02 21.512 50.028 20.844C50.028 20.251 50.734 19.617 52.256 19.617Z"
      fill="white"
    ></path>
    <path
      d="M66.021 16.8979H63.017C62.084 16.8979 61.39 17.1519 60.98 18.0819L55.207 31.1559H59.29C59.29 31.1559 59.956 29.3979 60.107 29.0129C60.554 29.0129 64.521 29.0189 65.086 29.0189C65.202 29.5169 65.56 31.1559 65.56 31.1559H69.167L66.021 16.8979ZM61.226 26.0929C61.546 25.2739 62.775 22.1059 62.775 22.1059C62.754 22.1449 63.092 21.2809 63.293 20.7439L63.555 21.9739C63.555 21.9739 64.3 25.3799 64.456 26.0929H61.226Z"
      fill="white"
    ></path>
  </g>
  <defs>
    <clipPath id="clip0_761_4328">
      <rect
        width="47.834"
        height="47.834"
        fill="white"
        transform="translate(21.333 0.0830078)"
      ></rect>
    </clipPath>
  </defs>
</svg>
