<svg width="18" height="18" viewBox="0 0 18 18" fill="none" xmlns="http://www.w3.org/2000/svg">
  <path
    d="M16.632 5.01659C16.4484 4.33382 15.9101 3.7956 15.2274 3.61175C13.9802 3.27051 8.9915 3.27051 8.9915 3.27051C8.9915 3.27051 4.00296 3.27051 2.7558 3.59881C2.08626 3.78246 1.53481 4.33392 1.35115 5.01659C1.02295 6.26365 1.02295 8.8499 1.02295 8.8499C1.02295 8.8499 1.02295 11.4492 1.35115 12.6832C1.535 13.3659 2.07313 13.9041 2.7559 14.0879C4.01609 14.4293 8.9917 14.4293 8.9917 14.4293C8.9917 14.4293 13.9802 14.4293 15.2274 14.101C15.9102 13.9172 16.4484 13.379 16.6322 12.6963C16.9604 11.4492 16.9604 8.86303 16.9604 8.86303C16.9604 8.86303 16.9735 6.26365 16.632 5.01659ZM7.4032 11.2392V6.46063L11.5516 8.8499L7.4032 11.2392Z"
    fill="white"
  ></path>
</svg>
